<?xml version="1.0" standalone="no"?>
<!DOCTYPE svg PUBLIC "-//W3C//DTD SVG 20010904//EN"
 "http://www.w3.org/TR/2001/REC-SVG-20010904/DTD/svg10.dtd">
<svg version="1.0" xmlns="http://www.w3.org/2000/svg"
 width="142.000000pt" height="142.000000pt" viewBox="0 0 142.000000 142.000000"
 preserveAspectRatio="xMidYMid meet">
<metadata>
Created by potrace 1.14, written by Peter Selinger 2001-2017
</metadata>
<g transform="translate(0.000000,142.000000) scale(0.100000,-0.100000)"
fill="#000000" stroke="none">
<path d="M300 1251 c0 -6 4 -13 10 -16 6 -3 7 1 4 9 -7 18 -14 21 -14 7z"/>
<path d="M558 1250 c6 -8 12 -17 12 -21 0 -9 -27 -5 -37 6 -5 4 -1 5 7 0 8 -5
12 -4 7 0 -12 14 -66 13 -60 -1 3 -8 -2 -11 -14 -9 -10 2 -24 4 -31 4 -7 1
-11 5 -8 9 2 4 -4 8 -14 8 -12 0 -16 -4 -10 -11 5 -6 -5 -10 -30 -10 -29 0
-36 3 -32 15 5 13 3 13 -12 1 -9 -8 -29 -16 -44 -17 -17 -2 -22 0 -14 5 10 6
8 10 -7 14 -12 3 -24 0 -28 -5 -4 -7 -1 -8 7 -3 8 5 11 4 6 -3 -9 -15 -38 -3
-29 12 3 6 -4 1 -17 -12 -12 -13 -28 -21 -36 -18 -8 3 -13 2 -13 -2 2 -16 -14
-51 -21 -47 -10 6 -7 -15 4 -33 5 -8 1 -21 -10 -33 -13 -15 -14 -18 -3 -14 10
4 15 -2 16 -17 0 -13 -1 -17 -4 -10 -3 6 -9 12 -15 12 -6 0 -3 -11 6 -25 12
-18 12 -23 3 -19 -8 3 -14 -2 -14 -10 0 -8 5 -12 12 -10 6 3 11 -6 12 -18 0
-13 -1 -17 -4 -10 -3 6 -9 12 -15 12 -6 0 -3 -11 6 -25 19 -29 20 -35 5 -35
-5 0 -7 5 -4 10 3 6 2 10 -3 10 -6 0 -9 -11 -8 -24 0 -13 6 -22 11 -20 6 3 10
-19 10 -55 0 -50 2 -58 14 -48 12 10 14 9 8 -5 -4 -12 -2 -15 9 -11 8 3 20 1
27 -5 7 -6 98 -9 230 -8 168 1 217 -2 217 -11 0 -7 4 -13 10 -13 5 0 7 7 3 16
-5 14 -3 15 15 5 25 -13 35 -14 27 -2 -3 6 6 8 21 5 18 -3 23 -1 18 7 -5 8 -3
9 7 3 23 -14 62 -17 53 -3 -4 8 -3 9 5 5 6 -4 8 -13 5 -19 -5 -9 -4 -9 6 0 10
9 18 9 33 1 17 -9 19 -8 14 6 -5 13 -3 14 13 4 14 -9 22 -9 33 1 9 7 18 8 21
2 7 -10 25 -9 44 2 6 5 12 4 12 -1 0 -17 38 -21 44 -5 5 13 9 13 23 2 20 -17
16 -17 36 0 10 7 17 9 17 3 0 -16 38 -21 44 -6 5 12 9 12 25 2 11 -7 18 -15
16 -18 -2 -4 2 -7 9 -7 8 0 12 7 8 15 -4 11 -2 13 9 7 20 -13 48 -13 46 -1 -1
5 3 10 10 11 6 0 15 4 20 9 5 5 3 6 -5 2 -11 -7 -11 -4 0 13 8 13 19 19 28 16
12 -5 12 -4 3 6 -9 9 -9 17 -1 33 15 27 19 48 7 40 -5 -3 -6 -11 -3 -17 4 -7
3 -9 -1 -4 -11 9 -13 87 -2 80 4 -2 7 3 7 11 0 9 -6 16 -12 16 -10 0 -10 2 -1
8 7 5 13 19 13 33 0 13 0 39 0 57 0 18 -4 31 -9 28 -11 -7 -9 13 3 33 7 10 6
12 -4 6 -10 -6 -12 -2 -8 18 4 18 1 24 -9 20 -16 -6 -17 9 0 26 10 11 9 12 -3
5 -21 -12 -39 -14 -45 -4 -3 5 -14 7 -25 5 -12 -2 -18 0 -15 6 4 5 2 9 -4 9
-5 0 -12 -4 -15 -9 -3 -5 -15 -7 -26 -4 -11 3 -17 10 -13 16 3 6 1 7 -6 3 -6
-4 -20 -2 -29 5 -15 12 -15 12 1 -7 16 -20 16 -21 -3 -19 -11 1 -23 5 -27 10
-5 4 -2 5 6 0 9 -5 12 -4 8 2 -3 5 -16 9 -29 8 -13 -1 -30 3 -38 8 -12 9 -13
9 -2 -3 6 -8 12 -17 12 -21 0 -9 -27 -5 -37 6 -5 4 -1 5 7 0 8 -5 12 -4 7 0
-11 13 -66 13 -61 1 3 -7 -10 -11 -30 -11 -26 0 -32 4 -28 15 5 12 3 13 -10 2
-12 -10 -18 -9 -28 3 -7 8 -18 15 -24 15 -6 0 -3 -5 7 -11 23 -14 21 -24 -5
-26 -16 -2 -19 0 -10 6 10 6 8 10 -7 14 -12 3 -24 0 -28 -5 -4 -7 -1 -8 8 -3
8 5 11 5 7 0 -4 -4 -23 -8 -42 -9 -26 -1 -32 2 -28 14 5 12 3 13 -9 3 -11 -9
-19 -9 -26 -2 -11 11 -46 2 -38 -10 2 -4 -2 -8 -9 -8 -9 0 -12 7 -8 16 4 13 2
13 -15 -2 -16 -14 -23 -15 -29 -6 -5 8 -3 10 6 4 8 -5 11 -4 7 2 -3 5 -16 9
-29 8 -13 -1 -30 3 -38 8 -12 9 -13 9 -2 -3z m152 -20 c0 -5 -2 -10 -4 -10 -3
0 -8 5 -11 10 -3 6 -1 10 4 10 6 0 11 -4 11 -10z m615 -179 c3 -5 2 -12 -3
-15 -5 -3 -9 1 -9 9 0 17 3 19 12 6z"/>
<path d="M455 1240 c3 -5 8 -10 11 -10 2 0 4 5 4 10 0 6 -5 10 -11 10 -5 0 -7
-4 -4 -10z"/>
<path d="M1175 1240 c3 -5 8 -10 11 -10 2 0 4 5 4 10 0 6 -5 10 -11 10 -5 0
-7 -4 -4 -10z"/>
<path d="M1234 1237 c-4 -7 -4 -9 1 -5 4 4 14 3 22 -3 8 -7 13 -8 13 -1 0 15
-28 23 -36 9z"/>
<path d="M116 1122 c-3 -5 1 -9 9 -9 8 0 15 4 15 9 0 4 -4 8 -9 8 -6 0 -12 -4
-15 -8z"/>
<path d="M1327 937 c-3 -8 1 -14 8 -14 7 0 11 6 8 14 -3 7 -6 13 -8 13 -2 0
-5 -6 -8 -13z"/>
<path d="M916 771 c-4 -5 -2 -12 3 -15 5 -4 12 -2 15 3 4 5 2 12 -3 15 -5 4
-12 2 -15 -3z"/>
<path d="M1043 765 c0 -8 4 -12 9 -9 5 3 6 10 3 15 -9 13 -12 11 -12 -6z"/>
<path d="M1161 764 c0 -11 3 -14 6 -6 3 7 2 16 -1 19 -3 4 -6 -2 -5 -13z"/>
<path d="M271 753 c7 -12 15 -20 18 -17 3 2 -3 12 -13 22 -17 16 -18 16 -5 -5z"/>
<path d="M370 761 c0 -6 4 -13 10 -16 6 -3 7 1 4 9 -7 18 -14 21 -14 7z"/>
<path d="M450 758 c0 -4 4 -8 9 -8 6 0 12 4 15 8 3 5 -1 9 -9 9 -8 0 -15 -4
-15 -9z"/>
<path d="M530 761 c0 -6 4 -13 10 -16 6 -3 7 1 4 9 -7 18 -14 21 -14 7z"/>
<path d="M610 758 c0 -4 4 -8 9 -8 6 0 12 4 15 8 3 5 -1 9 -9 9 -8 0 -15 -4
-15 -9z"/>
<path d="M745 759 c-3 -4 2 -6 10 -5 21 3 28 13 10 13 -9 0 -18 -4 -20 -8z"/>
<path d="M970 766 c0 -2 7 -7 16 -10 8 -3 12 -2 9 4 -6 10 -25 14 -25 6z"/>
<path d="M1090 766 c0 -2 7 -7 16 -10 8 -3 12 -2 9 4 -6 10 -25 14 -25 6z"/>
<path d="M274 673 c5 -8 6 -17 2 -20 -4 -4 -11 -1 -16 7 -8 12 -10 11 -10 -5
-1 -20 -1 -20 -15 -1 -15 20 -15 20 -16 0 0 -10 -3 -13 -6 -6 -3 8 -11 5 -25
-10 -11 -13 -17 -18 -14 -12 3 7 -2 18 -12 25 -15 13 -16 12 -4 -3 9 -11 10
-18 2 -23 -6 -3 -8 -11 -5 -16 4 -5 2 -9 -2 -9 -5 0 -9 -10 -9 -22 0 -13 -4
-33 -8 -45 -5 -15 -3 -23 4 -23 6 0 8 -5 5 -10 -4 -6 -11 -8 -16 -5 -5 3 -6
-1 -3 -9 3 -9 11 -13 18 -9 6 4 5 -1 -3 -10 -9 -12 -10 -17 -2 -17 7 0 9 -5 6
-10 -4 -6 -10 -8 -15 -5 -5 3 -12 0 -16 -6 -4 -7 -3 -9 3 -6 6 4 16 0 23 -8
11 -13 10 -14 -3 -10 -8 4 -18 1 -22 -5 -3 -6 -3 -10 2 -9 28 5 32 -1 20 -28
-6 -16 -16 -32 -22 -36 -5 -5 1 -5 15 -1 21 6 23 5 13 -8 -10 -11 -10 -17 -1
-26 9 -9 9 -15 -1 -25 -12 -10 -13 -8 -7 8 6 16 5 17 -5 8 -9 -9 -9 -16 -1
-26 7 -8 8 -18 4 -22 -4 -5 -1 -5 6 -1 7 4 9 12 6 18 -5 7 -2 8 5 4 7 -5 10
-10 7 -13 -8 -9 35 -44 45 -37 5 3 9 0 9 -6 0 -6 10 -8 26 -4 21 5 25 4 19 -6
-6 -10 -4 -11 6 -4 8 5 22 7 33 5 12 -2 16 1 11 9 -6 9 -2 9 13 1 27 -14 45
-14 36 1 -4 7 -3 8 5 4 6 -4 9 -11 6 -16 -3 -5 0 -12 7 -16 7 -4 10 -4 6 1 -4
4 -3 14 3 22 9 10 15 10 25 2 7 -6 19 -9 26 -6 7 2 21 0 31 -5 12 -6 17 -5 17
4 0 9 3 9 10 -2 5 -8 10 -10 10 -4 0 6 13 11 30 11 16 0 27 -4 24 -9 -3 -4 0
-8 5 -8 6 0 11 5 11 10 0 6 12 3 28 -7 15 -9 24 -13 20 -8 -13 14 13 37 28 24
7 -6 19 -9 26 -6 7 2 21 0 31 -5 12 -6 17 -5 17 4 0 9 3 9 10 -2 5 -8 10 -10
10 -4 0 6 14 11 30 12 17 0 28 -4 25 -9 -4 -5 -1 -9 4 -9 6 0 11 5 11 10 0 6
12 2 27 -7 15 -10 24 -13 20 -7 -4 7 0 17 7 23 10 8 16 9 21 2 3 -6 16 -10 28
-9 12 0 31 -3 41 -7 15 -7 17 -5 11 6 -4 8 -5 11 0 7 4 -4 15 -2 23 5 13 11
14 9 2 -13 -13 -24 -12 -25 7 -8 21 19 48 25 38 8 -3 -5 -1 -10 4 -10 6 0 11
4 11 9 0 5 12 8 26 5 19 -3 24 -1 18 8 -4 7 3 4 16 -7 13 -11 20 -15 17 -8 -4
6 -2 15 4 19 8 4 9 3 5 -4 -5 -9 5 -11 36 -8 24 2 51 -1 61 -6 13 -6 19 -4 24
7 3 10 13 15 24 12 11 -3 17 -1 14 3 -8 13 6 40 22 40 9 0 11 5 6 12 -11 19
-13 39 -2 32 5 -3 9 2 9 11 0 9 -4 14 -8 11 -5 -3 -9 1 -9 9 0 8 4 12 9 9 5
-4 9 0 7 7 -4 35 2 60 13 53 6 -4 4 3 -5 16 -13 18 -14 28 -5 44 10 18 9 19
-3 9 -12 -10 -15 -8 -15 7 0 10 4 16 8 14 4 -3 8 1 8 10 0 8 -6 17 -12 19 -10
4 -10 6 0 6 6 1 12 8 12 16 0 8 -6 15 -12 15 -7 0 -5 5 6 11 17 11 17 13 -10
35 -27 24 -27 25 -8 40 18 14 18 15 -3 4 -16 -7 -23 -7 -23 0 0 5 -6 9 -12 7
-7 -1 -12 3 -11 10 2 7 -4 10 -13 6 -12 -4 -12 -8 -4 -13 7 -5 -1 -7 -18 -7
-17 1 -28 5 -26 9 3 5 2 8 -3 9 -45 6 -65 4 -70 -4 -4 -6 -1 -7 8 -2 8 5 10 4
6 0 -13 -15 -38 -14 -44 2 -3 9 -8 11 -12 4 -4 -5 -19 -12 -34 -15 -16 -3 -25
-1 -22 5 4 5 11 7 16 4 5 -4 9 -2 9 4 0 5 -9 9 -20 8 -11 -1 -20 -7 -20 -14 0
-16 -5 -16 -31 -2 -12 6 -28 7 -37 3 -32 -14 -51 -12 -45 5 5 14 3 13 -13 -1
-17 -17 -19 -17 -39 5 -11 13 -16 17 -11 9 15 -21 -16 -36 -31 -15 -12 16 -13
16 -13 0 0 -9 -4 -17 -10 -17 -5 0 -7 8 -3 18 6 16 5 16 -14 -1 -16 -14 -23
-15 -29 -6 -4 8 -3 10 4 5 7 -4 12 -3 12 3 0 10 -55 9 -66 -2 -4 -3 3 -4 15
-2 12 2 19 0 16 -5 -7 -12 -35 -6 -45 11 -8 12 -11 12 -22 0 -11 -11 -11 -13
1 -6 9 5 12 4 8 -3 -9 -13 -36 -10 -46 6 -7 11 -35 11 -47 -1 -4 -3 4 -4 16
-2 12 2 20 1 16 -2 -15 -16 -39 -10 -44 10 -5 19 -6 20 -12 2 -8 -22 -79 -29
-87 -8 -5 13 -36 13 -49 0 -4 -3 3 -4 15 -2 12 2 19 0 16 -5 -9 -14 -38 -4
-45 15 -6 18 -7 18 -12 -1 -7 -27 -69 -26 -95 2 -10 11 -14 14 -9 7z m906 -19
c0 -8 -19 -13 -24 -6 -3 5 1 9 9 9 8 0 15 -2 15 -3z m-575 -454 c3 -5 1 -10
-4 -10 -6 0 -11 5 -11 10 0 6 2 10 4 10 3 0 8 -4 11 -10z m240 0 c3 -5 1 -10
-4 -10 -6 0 -11 5 -11 10 0 6 2 10 4 10 3 0 8 -4 11 -10z"/>
<path d="M630 680 c-9 -6 -10 -10 -3 -10 6 0 15 5 18 10 8 12 4 12 -15 0z"/>
<path d="M1210 680 c-9 -6 -10 -10 -3 -10 6 0 15 5 18 10 8 12 4 12 -15 0z"/>
<path d="M340 676 c0 -2 7 -9 15 -16 9 -7 15 -8 15 -2 0 5 -7 12 -15 16 -8 3
-15 4 -15 2z"/>
<path d="M468 673 c7 -3 16 -2 19 1 4 3 -2 6 -13 5 -11 0 -14 -3 -6 -6z"/>
<path d="M500 676 c0 -2 7 -9 15 -16 9 -7 15 -8 15 -2 0 5 -7 12 -15 16 -8 3
-15 4 -15 2z"/>
<path d="M910 660 c0 -5 5 -10 11 -10 5 0 7 5 4 10 -3 6 -8 10 -11 10 -2 0 -4
-4 -4 -10z"/>
<path d="M1305 220 c3 -5 8 -10 11 -10 2 0 4 5 4 10 0 6 -5 10 -11 10 -5 0 -7
-4 -4 -10z"/>
<path d="M390 184 c0 -8 5 -12 10 -9 6 4 8 11 5 16 -9 14 -15 11 -15 -7z"/>
<path d="M630 184 c0 -8 5 -12 10 -9 6 4 8 11 5 16 -9 14 -15 11 -15 -7z"/>
<path d="M870 184 c0 -8 5 -12 10 -9 6 4 8 11 5 16 -9 14 -15 11 -15 -7z"/>
<path d="M1200 180 c-12 -7 -10 -9 7 -7 12 0 19 5 17 9 -6 10 -6 10 -24 -2z"/>
</g>
</svg>
